<?xml version="1.0" encoding="utf-8"?>
<svg viewBox="0 0 43 54" fill="none" xmlns="http://www.w3.org/2000/svg">
  <path d="M5 0H37.5L38.5 4H3.5L5 0Z" style="fill: rgb(255, 255, 255);"/>
  <path d="M0 6H42.5V10H0V6Z" style="fill: rgb(255, 255, 255);"/>
  <path d="M2 12H7L10.5 49L8 53.5L2 12Z" style="fill: rgb(255, 255, 255);"/>
  <path d="M35 12H40L34.5 53L31.5 49L35 12Z" style="fill: rgb(255, 255, 255);"/>
  <path d="M10.5 49H31.5L34.5 53H8L10.5 49Z" style="fill: rgb(255, 255, 255);"/>
  <path d="M10.5 19L33 15L32.5 18L10 22L10.5 19Z" style="fill: rgb(255, 255, 255);"/>
  <path d="M10.5 24L33 20L32.5 23L10 27L10.5 24Z" style="fill: rgb(255, 255, 255);"/>
  <path d="M10.5 29L33 25L32.5 28L10 32L10.5 29Z" style="fill: rgb(255, 255, 255);"/>
  <path d="M10.5 34L33 30L32.5 33L10 37L10.5 34Z" style="fill: rgb(255, 255, 255);"/>
  <path d="M40 51.5C40 52.3284 39.3284 53 38.5 53C37.6716 53 37 52.3284 37 51.5C37 50.6716 37.6716 50 38.5 50C39.3284 50 40 50.6716 40 51.5Z" style="fill: rgb(255, 255, 255);"/>
</svg>