<svg width="43" height="54" viewBox="0 0 43 54" fill="none" xmlns="http://www.w3.org/2000/svg">
<path d="M5 0H37.5L38.5 4H3.5L5 0Z" fill="black" class="svg-elem-1"></path>
<path d="M0 6H42.5V10H0V6Z" fill="black" class="svg-elem-2"></path>
<path d="M2 12H7L10.5 49L8 53.5L2 12Z" fill="black" class="svg-elem-3"></path>
<path d="M35 12H40L34.5 53L31.5 49L35 12Z" fill="black" class="svg-elem-4"></path>
<path d="M10.5 49H31.5L34.5 53H8L10.5 49Z" fill="black" class="svg-elem-5"></path>
<path d="M10.5 19L33 15L32.5 18L10 22L10.5 19Z" fill="black" class="svg-elem-6"></path>
<path d="M10.5 24L33 20L32.5 23L10 27L10.5 24Z" fill="black" class="svg-elem-7"></path>
<path d="M10.5 29L33 25L32.5 28L10 32L10.5 29Z" fill="black" class="svg-elem-8"></path>
<path d="M10.5 34L33 30L32.5 33L10 37L10.5 34Z" fill="black" class="svg-elem-9"></path>
<path d="M40 51.5C40 52.3284 39.3284 53 38.5 53C37.6716 53 37 52.3284 37 51.5C37 50.6716 37.6716 50 38.5 50C39.3284 50 40 50.6716 40 51.5Z" fill="black" class="svg-elem-10"></path>
</svg>
